<!-- <svg width="138" height="26" viewBox="0 0 138 26" fill="none" xmlns="http://www.w3.org/2000/svg">
<g clip-path="url(#clip0_11236_4588)">
<path d="M43.5449 21.3572H46.6595L47.3838 11.7725C47.4562 10.6378 47.408 9.09268 47.408 9.09268H47.4562C47.4562 9.09268 47.9874 10.7827 48.3978 11.7725L51.1501 18.4118H53.8782L56.6547 11.7725C57.0651 10.7827 57.5721 9.11682 57.5721 9.11682H57.6204C57.6204 9.11682 57.5721 10.6378 57.6445 11.7725L58.3688 21.3572H61.4591L60.083 4.21582H56.7513L53.3954 12.69C53.0091 13.704 52.5504 15.2008 52.5504 15.2008H52.5021C52.5021 15.2008 52.0192 13.704 51.633 12.69L48.2771 4.21582H44.9452L43.5449 21.3572ZM62.9541 15.2008C62.9541 18.7015 65.4891 21.647 69.5693 21.647C72.6354 21.647 74.5185 19.8845 74.5185 19.8845L73.3355 17.6875C73.3355 17.6875 71.7663 19.0395 69.7865 19.0395C67.9517 19.0395 66.2858 17.929 66.0927 15.7802H74.591C74.591 15.7802 74.6634 14.9594 74.6634 14.5972C74.6634 11.338 72.7561 8.75468 69.2071 8.75468C65.5374 8.75468 62.9541 11.4104 62.9541 15.2008ZM66.1893 13.6798C66.479 12.0864 67.5654 11.1207 69.1347 11.1207C70.4867 11.1207 71.5248 12.014 71.5731 13.6798H66.1893ZM76.7569 16.8425C76.7569 20.971 80.161 21.478 81.8752 21.478C82.4546 21.478 82.8167 21.4055 82.8167 21.4055V18.7257C82.8167 18.7257 82.5994 18.774 82.2614 18.774C81.4164 18.774 79.823 18.4842 79.823 16.4562V11.676H82.6236V9.23753H79.823V5.68853H76.8293V9.23753H75.1634V11.676H76.7569V16.8425ZM84.3605 21.3572H87.4266V16.4804C87.4266 15.7561 87.499 15.0801 87.6922 14.4765C88.2716 12.6417 89.7443 11.8932 91.048 11.8932C91.4585 11.8932 91.7723 11.9415 91.7723 11.9415V8.92368C91.7723 8.92368 91.5068 8.87539 91.217 8.87539C89.3339 8.87539 87.8612 10.2757 87.3059 12.0381H87.2576C87.2576 12.0381 87.3059 11.6277 87.3059 11.169V9.04439H84.3605V21.3572ZM91.9557 15.2008C91.9557 18.9913 94.9736 21.647 98.7399 21.647C102.482 21.647 105.5 18.9913 105.5 15.2008C105.5 11.4345 102.482 8.75468 98.7157 8.75468C94.9736 8.75468 91.9557 11.4345 91.9557 15.2008ZM95.0702 15.2008C95.0702 12.9314 96.736 11.3621 98.7399 11.3621C100.72 11.3621 102.385 12.9314 102.385 15.2008C102.385 17.4944 100.72 19.0395 98.7399 19.0395C96.736 19.0395 95.0702 17.4944 95.0702 15.2008ZM106.997 21.3572H110.063V15.7078C110.063 15.1284 110.111 14.5731 110.28 14.0661C110.739 12.5934 111.946 11.5552 113.588 11.5552C115.157 11.5552 115.543 12.5692 115.543 14.0661V21.3572H118.585V13.4384C118.585 10.1791 117.04 8.75468 114.312 8.75468C111.825 8.75468 110.473 10.2757 109.942 11.3138H109.894C109.894 11.3138 109.942 10.9275 109.942 10.4688V9.04439H106.997V21.3572ZM120.837 6.94396H123.879V4.21582H120.837V6.94396ZM120.837 21.3572H123.903V9.04439H120.837V21.3572ZM125.414 15.2008C125.414 18.774 128.022 21.647 132.102 21.647C135.41 21.647 137.172 19.6431 137.172 19.6431L135.989 17.4702C135.989 17.4702 134.444 19.0395 132.368 19.0395C130.026 19.0395 128.529 17.253 128.529 15.1767C128.529 13.0762 130.002 11.3621 132.271 11.3621C134.202 11.3621 135.482 12.69 135.482 12.69L136.834 10.5895C136.834 10.5895 135.313 8.75468 132.102 8.75468C128.022 8.75468 125.414 11.7001 125.414 15.2008Z" fill="#0D2451"/>
<path d="M28.3734 1.28926L35.4345 23.2748C35.8195 24.4736 34.9253 25.6998 33.6663 25.6998H28.474C27.6649 25.6998 26.9489 25.1759 26.704 24.4048L19.7232 2.41917C19.3429 1.22163 20.2368 0 21.4932 0H26.6052C27.4121 0 28.1267 0.521017 28.3734 1.28926Z" fill="#3E97FF"/>
<g filter="url(#filter0_i_11236_4588)">
<path d="M21.6116 17.55L16.6326 1.60141C16.3352 0.648742 15.453 0 14.455 0C13.2402 0 12.2385 0.951953 12.1767 2.16515L11.5693 14.0861C11.5477 14.5094 11.5988 14.9334 11.7203 15.3396L14.4231 24.375C14.6583 25.1612 15.3817 25.6998 16.2024 25.6998H18.7149C19.5232 25.6998 20.2387 25.177 20.4843 24.4069L21.6015 20.9028C21.9491 19.8127 21.9526 18.6421 21.6116 17.55Z" fill="#F4F4F4"/>
<path d="M21.6116 17.55L16.6326 1.60141C16.3352 0.648742 15.453 0 14.455 0C13.2402 0 12.2385 0.951953 12.1767 2.16515L11.5693 14.0861C11.5477 14.5094 11.5988 14.9334 11.7203 15.3396L14.4231 24.375C14.6583 25.1612 15.3817 25.6998 16.2024 25.6998H18.7149C19.5232 25.6998 20.2387 25.177 20.4843 24.4069L21.6015 20.9028C21.9491 19.8127 21.9526 18.6421 21.6116 17.55Z" fill="url(#paint0_linear_11236_4588)"/>
</g>
<path d="M9.43345 0H14.5474C15.7996 0 16.693 1.21406 16.3204 2.40962L9.4114 24.5828C9.1696 25.3588 8.45121 25.8875 7.63834 25.8875H2.52445C1.27218 25.8875 0.378854 24.6734 0.751386 23.4778L7.66039 1.30467C7.90224 0.528617 8.62063 0 9.43345 0Z" fill="#3E97FF"/>
</g>
<defs>
<filter id="filter0_i_11236_4588" x="7.56445" y="0" width="14.3008" height="28.7" filterUnits="userSpaceOnUse" color-interpolation-filters="sRGB">
<feFlood flood-opacity="0" result="BackgroundImageFix"/>
<feBlend mode="normal" in="SourceGraphic" in2="BackgroundImageFix" result="shape"/>
<feColorMatrix in="SourceAlpha" type="matrix" values="0 0 0 0 0 0 0 0 0 0 0 0 0 0 0 0 0 0 127 0" result="hardAlpha"/>
<feOffset dx="-4" dy="3"/>
<feGaussianBlur stdDeviation="2"/>
<feComposite in2="hardAlpha" operator="arithmetic" k2="-1" k3="1"/>
<feColorMatrix type="matrix" values="0 0 0 0 0.904167 0 0 0 0 0.892865 0 0 0 0 0.892865 0 0 0 0.4 0"/>
<feBlend mode="normal" in2="shape" result="effect1_innerShadow_11236_4588"/>
</filter>
<linearGradient id="paint0_linear_11236_4588" x1="13.4642" y1="11.375" x2="22.7498" y2="14.1607" gradientUnits="userSpaceOnUse">
<stop stop-opacity="0.2"/>
<stop offset="0.911458" stop-color="white" stop-opacity="0"/>
</linearGradient>
<clipPath id="clip0_11236_4588">
<rect width="137.893" height="26" fill="white"/>
</clipPath>
</defs>
</svg> -->
<svg id="uuid-382b5630-d9f7-4df9-82ad-6d4132711a4b" xmlns="http://www.w3.org/2000/svg" viewBox="0 0 812.23 283.58"><defs><style>.uuid-5cc7167d-d0b4-46be-84c3-2b4624f95561{fill:#119942;}.uuid-5cc7167d-d0b4-46be-84c3-2b4624f95561,.uuid-7186568e-3de2-4ea3-a5a5-3d37b678f9d5{stroke-width:0px;}.uuid-7186568e-3de2-4ea3-a5a5-3d37b678f9d5{fill:#9f9f9f;}</style></defs><path class="uuid-7186568e-3de2-4ea3-a5a5-3d37b678f9d5" d="m42.65,54.03s-1.89,6.73-1.33,13.07.38,11.18,2.18,11.75,4.83,2.08,5.78,3.22,2.46,1.42,2.46,1.42c0,0,2.56,1.33,4.36,1.52s2.84.76,4.74-.76,3.41-5.68,3.41-5.68c0,0,0-4.45.85-8.05s4.07-20.84,4.17-23.49.38-9.38-1.8-9.57-4.64,0-4.64,0c0,0-2.37.57-3.79,1.61s-8.34,4.55-11.18,7.77-5.21,7.2-5.21,7.2Z"/><path class="uuid-7186568e-3de2-4ea3-a5a5-3d37b678f9d5" d="m40.59,210.69l7.96-1.64,6.32-2.78s2.02-.63,2.02-2.27.88-43.45.88-43.45c0,0,.13-25.77,1.64-35.49s2.02-11.62,1.89-17.43-1.39-10.61-1.39-10.61c0,0-.25-2.4-3.92-.88s-12.38,6.69-12.38,6.69l-5.94,7.58s-2.4,8.08-2.15,12.13-.02,36.48-.02,36.48c0,0,.27,30.72,1.41,38.93s.76,11.37,3.66,12.76Z"/><path class="uuid-7186568e-3de2-4ea3-a5a5-3d37b678f9d5" d="m71.92,209.94l1.01,11.87s.22,2.13-2.01,3.03-18,4.97-18,4.97l-9,2.61-6.25.47-3.51,1.99-11.79,3.22-12.6,3.93s-3.08.09-4.26,0-4.5-1.8-5.12-3.32-.43-7.01,0-8.29.66-2.98,1.99-3.84,4.17-3.22,5.78-3.79,9.09-3.93,20.51-6.87,26.72-6.3,33.3-7.67c6.58-1.37,7.39-1.56,7.39-1.56,0,0,3.22-1.11,2.56,3.24Z"/><path class="uuid-7186568e-3de2-4ea3-a5a5-3d37b678f9d5" d="m45.3,234.93l3.51-.43s2.75-1.14,3.27-1.18,3.22-.57,4.36-.19,1.85.66,1.99,2.08.85,2.89.85,4.97.62,14.02-1.56,23.12-1.89,8.81-2.56,9.81-6.06,6.54-6.06,6.54c0,0-.33.33-1.85.28s-2.08-.24-2.7-1.66-.99-3.41-.99-3.41c0,0,.33-6.06,0-6.58s-1.37-2.13-1.33-2.89.52-1.85,0-4.5-1.8-10.56-1.8-15.06.09-7.72.43-8.34,2.94-2.37,4.45-2.56Z"/><path class="uuid-7186568e-3de2-4ea3-a5a5-3d37b678f9d5" d="m104.89,199.77s-3.28.95-1.45,3.54l1.01,14.46s-.13,2.46,2.08,2.27,5.87-1.01,8.84-1.26,17.75-.76,17.75-.76l36.13-3.28,36.19-3.41s30.88-1.89,39.6-2.27c8.72-.38,64.86-2.59,64.86-2.59l64.74-2.72,53.56-1.52,89.12-1.26s85.26.63,99.28.25c14.02-.38,49.89.88,49.89.88,0,0,62.78,4.17,80.08,5.05,17.31.88,41.81,2.75,41.81,2.75l4.58-1.08,6.63-.95,8.34-3.88,3.95-4.23s1.45-3.13-1.52-3.47c-2.97-.35-34.41-3.47-34.41-3.47l-52.91-3.03-65.32-2.98-33.68-.99-59.4-.52h-203.4s-93.79,1.41-149.37,5.45c-31.43,2.29-60.24,3.49-80.46,5.31-15.54,1.4-26.53,3.73-26.53,3.73Z"/><path class="uuid-7186568e-3de2-4ea3-a5a5-3d37b678f9d5" d="m195.5,63.74c0,2.03-.91,3.05-2.74,3.05-.54,0-1.35-.08-2.42-.22-.87-.12-1.83-.18-2.87-.18-.9,0-1.74.06-2.51.18-.96.15-1.69.22-2.2.22-.81,0-1.47-.27-1.97-.8-.51-.53-.76-1.23-.76-2.09,0-1.72.7-2.58,2.11-2.58.21,0,.46.03.76.08.45.13.72.19.81.19.51,0,.76-.84.76-2.51v-7.27c0-1.71-.25-2.56-.76-2.56l-.81.18c-.21.09-.46.13-.76.13-1.41,0-2.11-.87-2.11-2.6,0-.87.26-1.57.79-2.11.52-.54,1.22-.81,2.09-.81.36,0,.82.04,1.39.13.96.15,1.76.22,2.42.22s1.33-.06,2.02-.18c.69-.12,1.14-.18,1.35-.18.84,0,1.26.58,1.26,1.75v13.46c0,1.56.3,2.33.9,2.33.15,0,.36-.04.63-.13s.52-.13.76-.13c1.26,0,1.88.81,1.88,2.42Zm-3.9-25.49c0,1.14-.4,2.1-1.19,2.89s-1.76,1.19-2.89,1.19-2.1-.41-2.89-1.23c-.79-.82-1.19-1.83-1.19-3.03,0-1.02.41-1.92,1.23-2.71.82-.79,1.77-1.19,2.85-1.19,1.17,0,2.14.39,2.92,1.17.78.78,1.17,1.75,1.17,2.92Z"/><path class="uuid-7186568e-3de2-4ea3-a5a5-3d37b678f9d5" d="m239.57,63.72c0,.91-.24,1.65-.72,2.24-.48.59-1.09.87-1.84.84-.39-.03-1.08-.11-2.06-.22-.87-.12-1.57-.18-2.11-.18-1.14,0-2.06.06-2.78.18-.9.15-1.53.22-1.88.22-.72,0-1.32-.27-1.79-.81-.48-.54-.72-1.21-.72-2.02,0-1.44.57-2.26,1.71-2.47.54-.09.87-.26.99-.52.12-.25.18-.9.18-1.95v-4.62c0-1.79-.15-3.01-.45-3.63-.45-.93-1.29-1.39-2.51-1.39-2.54,0-3.81,1.83-3.81,5.47v4.17c0,1.02.04,1.66.13,1.93.09.27.33.45.72.54.93.21,1.39.97,1.39,2.29,0,2-.81,3.01-2.42,3.01-.39,0-.88-.04-1.48-.13-.99-.15-1.63-.22-1.93-.22-.6,0-1.18.06-1.75.18-.57.12-1.06.18-1.48.18-1.47,0-2.2-.91-2.2-2.74,0-1.41.46-2.23,1.39-2.47.42-.09.67-.26.74-.52.07-.25.11-.94.11-2.05v-5.08c0-1.71-.2-2.89-.61-3.55s-1.13-.99-2.18-.99c-2.63,0-3.95,1.81-3.95,5.44v4.18c0,1.2.04,1.89.13,2.07.09.18.4.33.94.45,1.17.24,1.75,1.04,1.75,2.38,0,1.92-.82,2.88-2.47,2.88-.48,0-1.2-.06-2.15-.18-.96-.12-1.69-.18-2.2-.18-.75,0-1.5.04-2.24.13-1.23.15-1.99.22-2.29.22-.84,0-1.51-.27-2.02-.81-.51-.54-.76-1.24-.76-2.11,0-1.73.7-2.6,2.11-2.6.21,0,.46.03.76.09.45.15.72.22.81.22.51,0,.76-.84.76-2.51v-7.27c0-1.71-.25-2.56-.76-2.56l-.81.18c-.21.09-.46.13-.76.13-1.41,0-2.11-.87-2.11-2.6,0-.84.25-1.53.76-2.09.51-.55,1.15-.83,1.93-.83.33,0,.81.06,1.44.18.63.12,1.11.18,1.44.18.57,0,1.18-.06,1.84-.18.57-.12,1-.18,1.3-.18.81-.03,1.21.42,1.21,1.35v2.06c2.21-2.69,4.71-4.04,7.49-4.04,2.3,0,4.19,1.12,5.65,3.37,1.5-1.29,2.78-2.17,3.86-2.65,1.08-.48,2.33-.72,3.77-.72,2.81,0,4.92.93,6.33,2.78.96,1.26,1.44,3.34,1.44,6.24v6.82c0,1.53.3,2.29.9,2.29.15,0,.37-.04.65-.13.28-.09.5-.13.65-.13,1.32,0,1.97.81,1.97,2.44Z"/><path class="uuid-7186568e-3de2-4ea3-a5a5-3d37b678f9d5" d="m265.32,55.28c0,3.49-.82,6.32-2.47,8.49-1.65,2.17-3.8,3.25-6.46,3.25-1.2,0-2.21-.19-3.05-.57-.6-.26-1.51-.84-2.74-1.72v2.38c0,1.17.06,1.87.18,2.11.12.24.43.36.94.36.24,0,.6-.04,1.08-.13.48-.09.85-.13,1.12-.13,1.35,0,2.02.79,2.02,2.38,0,1.79-.93,2.69-2.78,2.69-.36,0-1.18-.07-2.47-.22-1.29-.15-2.63-.22-4.04-.22-.99,0-1.78.04-2.38.13-1.41.21-2.15.31-2.24.31-.78,0-1.43-.27-1.95-.81-.52-.54-.79-1.23-.79-2.06,0-1.74.7-2.6,2.11-2.6.21,0,.46.04.76.12.45.19.72.29.81.29.51,0,.76-.86.76-2.57v-14.92c0-1.71-.25-2.57-.76-2.57l-.81.18c-.21.09-.46.13-.76.13-1.41,0-2.11-.87-2.11-2.6,0-.84.25-1.53.74-2.09.49-.55,1.11-.83,1.86-.83.33.03.94.11,1.84.22.24.06.67.09,1.3.09.81,0,1.63-.06,2.47-.18.63-.09.9-.13.81-.13.78,0,1.17.54,1.17,1.62v1.3c1.85-2.36,4.17-3.54,6.96-3.54s4.92,1.06,6.51,3.18c1.58,2.12,2.38,5.02,2.38,8.69Zm-7.22-.09c0-1.85-.34-3.32-1.03-4.43-.69-1.1-1.6-1.65-2.74-1.65s-1.98.54-2.62,1.63c-.64,1.09-.96,2.57-.96,4.45s.32,3.33.96,4.45c.64,1.12,1.5,1.68,2.58,1.68,1.17,0,2.09-.55,2.78-1.65.69-1.1,1.03-2.59,1.03-4.47Z"/><path class="uuid-7186568e-3de2-4ea3-a5a5-3d37b678f9d5" d="m290.54,48.93c0,1.2-.36,2.2-1.08,3.01-.72.81-1.62,1.21-2.69,1.21-.84,0-1.56-.26-2.15-.79-.6-.52-.9-1.17-.9-1.95,0-.45.18-1.05.54-1.79h-.27c-3.23,0-4.85,3.02-4.85,9.06v1.71c0,.93.06,1.55.18,1.86.12.31.37.47.76.47.3,0,.63-.07.99-.22.6-.15,1-.22,1.21-.22.63,0,1.17.24,1.64.71.46.47.7,1.04.7,1.71,0,.88-.29,1.62-.88,2.21-.58.59-1.31.89-2.18.89-.36,0-1.05-.06-2.06-.18-1.02-.12-2.12-.18-3.32-.18-1.08,0-2.03.04-2.87.13-1.38.15-2.24.22-2.6.22-.87,0-1.56-.27-2.09-.81-.52-.54-.79-1.24-.79-2.11,0-1.73.7-2.6,2.11-2.6.21,0,.46.03.76.09.45.15.72.22.81.22.51,0,.76-.84.76-2.51v-7.27c0-1.71-.25-2.56-.76-2.56l-.81.18c-.21.09-.46.13-.76.13-1.41,0-2.11-.84-2.11-2.51,0-.87.24-1.59.72-2.18.48-.58,1.06-.88,1.75-.88.18,0,.64.07,1.39.22.39.12.87.18,1.44.18.54,0,1.14-.07,1.79-.2.57-.1,1.03-.17,1.39-.2.9-.03,1.35.42,1.35,1.36v3.89c1.11-3.89,3.46-5.83,7.04-5.83,1.65,0,3.03.52,4.15,1.57,1.12,1.05,1.68,2.36,1.68,3.95Z"/><path class="uuid-7186568e-3de2-4ea3-a5a5-3d37b678f9d5" d="m307.73,63.74c0,2.03-.91,3.05-2.74,3.05-.54,0-1.35-.08-2.42-.22-.87-.12-1.83-.18-2.87-.18-.9,0-1.74.06-2.51.18-.96.15-1.69.22-2.2.22-.81,0-1.47-.27-1.97-.8-.51-.53-.76-1.23-.76-2.09,0-1.72.7-2.58,2.11-2.58.21,0,.46.03.76.08.45.13.72.19.81.19.51,0,.76-.84.76-2.51v-7.27c0-1.71-.25-2.56-.76-2.56l-.81.18c-.21.09-.46.13-.76.13-1.41,0-2.11-.87-2.11-2.6,0-.87.26-1.57.79-2.11.52-.54,1.22-.81,2.09-.81.36,0,.82.04,1.39.13.96.15,1.76.22,2.42.22s1.33-.06,2.02-.18c.69-.12,1.14-.18,1.35-.18.84,0,1.26.58,1.26,1.75v13.46c0,1.56.3,2.33.9,2.33.15,0,.36-.04.63-.13s.52-.13.76-.13c1.26,0,1.88.81,1.88,2.42Zm-3.9-25.49c0,1.14-.4,2.1-1.19,2.89s-1.76,1.19-2.89,1.19-2.1-.41-2.89-1.23c-.79-.82-1.19-1.83-1.19-3.03,0-1.02.41-1.92,1.23-2.71.82-.79,1.77-1.19,2.85-1.19,1.17,0,2.14.39,2.92,1.17.78.78,1.17,1.75,1.17,2.92Z"/><path class="uuid-7186568e-3de2-4ea3-a5a5-3d37b678f9d5" d="m351.79,63.72c0,.91-.24,1.65-.72,2.24-.48.59-1.09.87-1.84.84-.39-.03-1.08-.11-2.06-.22-.87-.12-1.57-.18-2.11-.18-1.14,0-2.06.06-2.78.18-.9.15-1.53.22-1.88.22-.72,0-1.32-.27-1.79-.81-.48-.54-.72-1.21-.72-2.02,0-1.44.57-2.26,1.71-2.47.54-.09.87-.26.99-.52.12-.25.18-.9.18-1.95v-4.62c0-1.79-.15-3.01-.45-3.63-.45-.93-1.29-1.39-2.51-1.39-2.54,0-3.81,1.83-3.81,5.47v4.17c0,1.02.04,1.66.13,1.93.09.27.33.45.72.54.93.21,1.39.97,1.39,2.29,0,2-.81,3.01-2.42,3.01-.39,0-.88-.04-1.48-.13-.99-.15-1.63-.22-1.93-.22-.6,0-1.18.06-1.75.18-.57.12-1.06.18-1.48.18-1.47,0-2.2-.91-2.2-2.74,0-1.41.46-2.23,1.39-2.47.42-.09.67-.26.74-.52.07-.25.11-.94.11-2.05v-5.08c0-1.71-.2-2.89-.61-3.55s-1.13-.99-2.18-.99c-2.63,0-3.95,1.81-3.95,5.44v4.18c0,1.2.04,1.89.13,2.07.09.18.4.33.94.45,1.17.24,1.75,1.04,1.75,2.38,0,1.92-.82,2.88-2.47,2.88-.48,0-1.2-.06-2.15-.18-.96-.12-1.69-.18-2.2-.18-.75,0-1.5.04-2.24.13-1.23.15-1.99.22-2.29.22-.84,0-1.51-.27-2.02-.81-.51-.54-.76-1.24-.76-2.11,0-1.73.7-2.6,2.11-2.6.21,0,.46.03.76.09.45.15.72.22.81.22.51,0,.76-.84.76-2.51v-7.27c0-1.71-.25-2.56-.76-2.56l-.81.18c-.21.09-.46.13-.76.13-1.41,0-2.11-.87-2.11-2.6,0-.84.25-1.53.76-2.09.51-.55,1.15-.83,1.93-.83.33,0,.81.06,1.44.18.63.12,1.11.18,1.44.18.57,0,1.18-.06,1.84-.18.57-.12,1-.18,1.3-.18.81-.03,1.21.42,1.21,1.35v2.06c2.21-2.69,4.71-4.04,7.49-4.04,2.3,0,4.19,1.12,5.65,3.37,1.5-1.29,2.78-2.17,3.86-2.65,1.08-.48,2.33-.72,3.77-.72,2.81,0,4.92.93,6.33,2.78.96,1.26,1.44,3.34,1.44,6.24v6.82c0,1.53.3,2.29.9,2.29.15,0,.37-.04.65-.13.28-.09.5-.13.65-.13,1.32,0,1.97.81,1.97,2.44Z"/><path class="uuid-7186568e-3de2-4ea3-a5a5-3d37b678f9d5" d="m375.62,53.42c0,1.2-.1,1.99-.31,2.38-.3.57-.97.85-2.02.85h-10.95c-.48,0-.8.05-.96.16-.17.11-.25.37-.25.79,0,1.27.4,2.32,1.21,3.15.81.83,1.82,1.24,3.05,1.24s2.54-.7,3.86-2.09c.87-.94,1.85-1.41,2.96-1.41.9,0,1.62.25,2.18.74.55.49.83,1.14.83,1.95,0,1.71-.95,3.16-2.85,4.38-1.9,1.21-4.21,1.82-6.93,1.82-3.56,0-6.4-1.07-8.53-3.21-2.12-2.14-3.19-5.02-3.19-8.64s1.06-6.57,3.19-8.77c2.12-2.2,4.95-3.3,8.48-3.3,3.05,0,5.52.92,7.4,2.76,1.88,1.84,2.83,4.24,2.83,7.2Zm-7.13-2.29c0-.75-.34-1.41-1.03-2-.69-.58-1.47-.88-2.33-.88-.96,0-1.82.31-2.6.92-.78.61-1.17,1.29-1.17,2.04,0,.42.36.63,1.08.63h5.03c.69,0,1.03-.24,1.03-.72Z"/><path class="uuid-7186568e-3de2-4ea3-a5a5-3d37b678f9d5" d="m401.02,48.93c0,1.2-.36,2.2-1.08,3.01-.72.81-1.62,1.21-2.69,1.21-.84,0-1.56-.26-2.15-.79-.6-.52-.9-1.17-.9-1.95,0-.45.18-1.05.54-1.79h-.27c-3.23,0-4.85,3.02-4.85,9.06v1.71c0,.93.06,1.55.18,1.86.12.31.37.47.76.47.3,0,.63-.07.99-.22.6-.15,1-.22,1.21-.22.63,0,1.17.24,1.64.71.46.47.7,1.04.7,1.71,0,.88-.29,1.62-.88,2.21-.58.59-1.31.89-2.18.89-.36,0-1.05-.06-2.06-.18-1.02-.12-2.12-.18-3.32-.18-1.08,0-2.03.04-2.87.13-1.38.15-2.24.22-2.6.22-.87,0-1.56-.27-2.09-.81-.52-.54-.79-1.24-.79-2.11,0-1.73.7-2.6,2.11-2.6.21,0,.46.03.76.09.45.15.72.22.81.22.51,0,.76-.84.76-2.51v-7.27c0-1.71-.25-2.56-.76-2.56l-.81.18c-.21.09-.46.13-.76.13-1.41,0-2.11-.84-2.11-2.51,0-.87.24-1.59.72-2.18.48-.58,1.06-.88,1.75-.88.18,0,.64.07,1.39.22.39.12.87.18,1.44.18.54,0,1.14-.07,1.79-.2.57-.1,1.03-.17,1.39-.2.9-.03,1.35.42,1.35,1.36v3.89c1.11-3.89,3.46-5.83,7.04-5.83,1.65,0,3.03.52,4.15,1.57,1.12,1.05,1.68,2.36,1.68,3.95Z"/><path class="uuid-7186568e-3de2-4ea3-a5a5-3d37b678f9d5" d="m418.2,63.74c0,2.03-.91,3.05-2.74,3.05-.54,0-1.35-.08-2.42-.22-.87-.12-1.82-.18-2.87-.18-.9,0-1.74.06-2.51.18-.96.15-1.69.22-2.2.22-.81,0-1.47-.27-1.97-.8-.51-.53-.76-1.23-.76-2.09,0-1.72.7-2.58,2.11-2.58.21,0,.46.03.76.08.45.13.72.19.81.19.51,0,.76-.84.76-2.51v-7.27c0-1.71-.25-2.56-.76-2.56l-.81.18c-.21.09-.46.13-.76.13-1.41,0-2.11-.87-2.11-2.6,0-.87.26-1.57.79-2.11.52-.54,1.22-.81,2.09-.81.36,0,.82.04,1.39.13.96.15,1.76.22,2.42.22s1.33-.06,2.02-.18c.69-.12,1.14-.18,1.35-.18.84,0,1.26.58,1.26,1.75v13.46c0,1.56.3,2.33.9,2.33.15,0,.36-.04.63-.13.27-.09.52-.13.76-.13,1.26,0,1.88.81,1.88,2.42Zm-3.9-25.49c0,1.14-.4,2.1-1.19,2.89-.79.79-1.76,1.19-2.89,1.19s-2.1-.41-2.89-1.23c-.79-.82-1.19-1.83-1.19-3.03,0-1.02.41-1.92,1.23-2.71.82-.79,1.77-1.19,2.85-1.19,1.17,0,2.14.39,2.92,1.17.78.78,1.17,1.75,1.17,2.92Z"/><path class="uuid-7186568e-3de2-4ea3-a5a5-3d37b678f9d5" d="m442.12,53.42c0,1.2-.11,1.99-.31,2.38-.3.57-.97.85-2.02.85h-10.95c-.48,0-.8.05-.96.16-.17.11-.25.37-.25.79,0,1.27.4,2.32,1.21,3.15.81.83,1.82,1.24,3.05,1.24s2.54-.7,3.86-2.09c.87-.94,1.85-1.41,2.96-1.41.9,0,1.62.25,2.18.74.55.49.83,1.14.83,1.95,0,1.71-.95,3.16-2.85,4.38-1.9,1.21-4.21,1.82-6.93,1.82-3.56,0-6.4-1.07-8.53-3.21-2.12-2.14-3.19-5.02-3.19-8.64s1.06-6.57,3.19-8.77,4.95-3.3,8.48-3.3c3.05,0,5.52.92,7.4,2.76,1.88,1.84,2.83,4.24,2.83,7.2Zm-7.13-2.29c0-.75-.34-1.41-1.03-2-.69-.58-1.47-.88-2.33-.88-.96,0-1.83.31-2.6.92-.78.61-1.17,1.29-1.17,2.04,0,.42.36.63,1.08.63h5.03c.69,0,1.03-.24,1.03-.72Z"/><path class="uuid-5cc7167d-d0b4-46be-84c3-2b4624f95561" d="m90.87,13.39s1.01,4.11.63,5.94-1.83,9.54-1.01,11.62,1.77,5.18,4.93,7.14,6.19,4.86,7.71,6.25,1.83,1.77,1.83,1.77l2.65.32,1.89-1.52s2.65-17.18,3.22-19.14.13-5.31.88-8.53.88-3.85.88-3.85c0,0-.25-5.62,0-8.15s.44-3.54.44-3.54l-2.65-1.71-8.46,4.93s-2.34.25-3.73.82-6.63,3.6-7.52,4.74-1.81,2.47-1.71,2.91Z"/><path class="uuid-5cc7167d-d0b4-46be-84c3-2b4624f95561" d="m84.49,282.88l1.52.69,2.02-1.14s.95-6.44,1.64-7.89,3.54-7.01,4.55-11.56,1.77-13.14,2.4-27.85,4.36-106.67,4.36-106.67c0,0,.07-16.04,1.61-25.64s3.19-20.59,3.19-20.59v-10.74l-2.15-3.03-9.09,4.17-6.32,5.43s-7.58,9.98-8.84,14.27-3.54,17.31-3.28,47.87,1.14,83.49,1.14,83.49c0,0,3.16,25.01,3.28,29.56s0,8.34,0,8.34l1.39,11.87,2.59,9.41Z"/><path class="uuid-5cc7167d-d0b4-46be-84c3-2b4624f95561" d="m181.81,151.31c0,5.45-2.45,8.17-7.33,8.17-1.44,0-3.61-.2-6.49-.6-2.33-.32-4.89-.48-7.69-.48-2.4,0-4.65.16-6.73.48-2.57.4-4.53.6-5.89.6-2.16,0-3.93-.71-5.29-2.14-1.36-1.43-2.04-3.3-2.04-5.61,0-4.61,1.88-6.92,5.65-6.92.56,0,1.24.07,2.04.21,1.2.34,1.92.51,2.16.51,1.36,0,2.04-2.24,2.04-6.73v-19.48c0-4.57-.68-6.85-2.04-6.85l-2.16.48c-.56.24-1.24.36-2.04.36-3.77,0-5.65-2.32-5.65-6.97,0-2.32.7-4.21,2.1-5.65,1.4-1.44,3.27-2.16,5.59-2.16.96,0,2.2.12,3.73.36,2.56.4,4.73.6,6.49.6s3.57-.16,5.41-.48c1.84-.32,3.04-.48,3.61-.48,2.24,0,3.37,1.56,3.37,4.69v36.07c0,4.17.8,6.25,2.4,6.25.4,0,.96-.12,1.68-.36.72-.24,1.4-.36,2.04-.36,3.37,0,5.05,2.16,5.05,6.49Zm-10.46-68.29c0,3.05-1.06,5.63-3.19,7.75s-4.71,3.19-7.75,3.19-5.63-1.1-7.75-3.31c-2.12-2.2-3.19-4.91-3.19-8.11,0-2.72,1.1-5.15,3.31-7.27,2.2-2.12,4.75-3.19,7.63-3.19,3.13,0,5.73,1.04,7.81,3.13,2.08,2.08,3.13,4.69,3.13,7.81Z"/><path class="uuid-5cc7167d-d0b4-46be-84c3-2b4624f95561" d="m300.06,151.25c0,2.42-.64,4.43-1.92,6-1.28,1.58-2.93,2.32-4.93,2.24-1.04-.08-2.89-.28-5.53-.6-2.33-.32-4.21-.48-5.65-.48-3.05,0-5.53.16-7.45.48-2.4.4-4.09.6-5.05.6-1.92,0-3.53-.72-4.81-2.16-1.28-1.44-1.92-3.25-1.92-5.41,0-3.85,1.52-6.05,4.57-6.61,1.44-.24,2.32-.7,2.64-1.38.32-.68.48-2.42.48-5.23v-12.38c0-4.81-.4-8.05-1.2-9.74-1.2-2.48-3.45-3.73-6.73-3.73-6.81,0-10.22,4.89-10.22,14.67v11.18c0,2.73.12,4.45.36,5.17.24.72.88,1.2,1.92,1.44,2.48.56,3.73,2.61,3.73,6.13,0,5.37-2.16,8.05-6.49,8.05-1.04,0-2.36-.12-3.97-.36-2.65-.4-4.37-.6-5.17-.6-1.6,0-3.17.16-4.69.48-1.52.32-2.85.48-3.97.48-3.93,0-5.89-2.45-5.89-7.35,0-3.78,1.24-5.99,3.73-6.63,1.12-.24,1.78-.7,1.98-1.39.2-.68.3-2.51.3-5.49v-13.62c0-4.58-.54-7.75-1.62-9.52s-3.03-2.65-5.83-2.65c-7.05,0-10.58,4.86-10.58,14.58v11.21c0,3.22.12,5.06.36,5.55.24.48,1.08.88,2.52,1.21,3.13.64,4.69,2.77,4.69,6.39,0,5.14-2.21,7.71-6.61,7.71-1.28,0-3.21-.16-5.77-.48-2.57-.32-4.53-.48-5.89-.48-2,0-4.01.12-6.01.36-3.29.4-5.33.6-6.13.6-2.24,0-4.05-.72-5.41-2.16-1.36-1.44-2.04-3.33-2.04-5.65,0-4.65,1.88-6.97,5.65-6.97.56,0,1.24.08,2.04.24,1.2.4,1.92.6,2.16.6,1.36,0,2.04-2.24,2.04-6.73v-19.48c0-4.57-.68-6.85-2.04-6.85l-2.16.48c-.56.24-1.24.36-2.04.36-3.77,0-5.65-2.32-5.65-6.97,0-2.24.68-4.11,2.04-5.59,1.36-1.48,3.08-2.22,5.17-2.22.88,0,2.16.16,3.85.48,1.68.32,2.96.48,3.85.48,1.52,0,3.17-.16,4.93-.48,1.52-.32,2.68-.48,3.49-.48,2.16-.08,3.25,1.12,3.25,3.61v5.53c5.93-7.21,12.62-10.82,20.08-10.82,6.17,0,11.22,3.01,15.15,9.02,4.01-3.45,7.45-5.81,10.34-7.09,2.89-1.28,6.25-1.92,10.1-1.92,7.53,0,13.18,2.49,16.95,7.45,2.56,3.37,3.85,8.94,3.85,16.71v18.27c0,4.09.8,6.13,2.4,6.13.4,0,.98-.12,1.74-.36.76-.24,1.34-.36,1.74-.36,3.53,0,5.29,2.18,5.29,6.54Z"/><path class="uuid-5cc7167d-d0b4-46be-84c3-2b4624f95561" d="m365.27,128.65c0,9.36-2.21,16.94-6.61,22.74-4.41,5.8-10.18,8.7-17.31,8.7-3.21,0-5.93-.51-8.17-1.53-1.6-.71-4.05-2.24-7.33-4.6v6.37c0,3.13.16,5.01.48,5.65.32.64,1.16.96,2.52.96.64,0,1.6-.12,2.89-.36,1.28-.24,2.28-.36,3.01-.36,3.61,0,5.41,2.12,5.41,6.37,0,4.81-2.49,7.21-7.45,7.21-.96,0-3.17-.2-6.61-.6-3.45-.4-7.05-.6-10.82-.6-2.65,0-4.77.12-6.37.36-3.77.56-5.77.84-6.01.84-2.08,0-3.83-.72-5.23-2.16-1.4-1.44-2.1-3.29-2.1-5.53,0-4.65,1.88-6.97,5.65-6.97.56,0,1.24.1,2.04.31,1.2.51,1.92.77,2.16.77,1.36,0,2.04-2.29,2.04-6.88v-39.97c0-4.59-.68-6.88-2.04-6.88l-2.16.48c-.56.24-1.24.36-2.04.36-3.77,0-5.65-2.32-5.65-6.97,0-2.24.66-4.11,1.98-5.59,1.32-1.48,2.98-2.22,4.99-2.22.88.08,2.52.28,4.93.6.64.16,1.8.24,3.49.24,2.16,0,4.37-.16,6.61-.48,1.68-.24,2.4-.36,2.16-.36,2.08,0,3.13,1.44,3.13,4.33v3.49c4.97-6.33,11.18-9.5,18.63-9.5s13.18,2.84,17.43,8.52c4.25,5.68,6.37,13.44,6.37,23.28Zm-19.36-.24c0-4.95-.92-8.9-2.77-11.86-1.84-2.95-4.29-4.43-7.33-4.43s-5.31,1.46-7.03,4.37c-1.72,2.92-2.58,6.89-2.58,11.92s.86,8.92,2.58,11.92c1.72,2.99,4.03,4.49,6.91,4.49,3.13,0,5.61-1.48,7.45-4.43,1.84-2.96,2.77-6.95,2.77-11.98Z"/><path class="uuid-5cc7167d-d0b4-46be-84c3-2b4624f95561" d="m431.03,111.64c0,3.21-.96,5.89-2.89,8.05-1.92,2.16-4.33,3.25-7.21,3.25-2.24,0-4.17-.7-5.77-2.1-1.6-1.4-2.4-3.14-2.4-5.23,0-1.2.48-2.8,1.44-4.81h-.72c-8.66,0-12.98,8.1-12.98,24.28v4.57c0,2.48.16,4.15.48,4.99.32.84,1,1.26,2.04,1.26.8,0,1.68-.2,2.65-.6,1.6-.4,2.68-.6,3.25-.6,1.68,0,3.14.63,4.39,1.9,1.24,1.26,1.86,2.79,1.86,4.58,0,2.36-.78,4.34-2.34,5.93-1.56,1.59-3.51,2.38-5.83,2.38-.96,0-2.81-.16-5.53-.48-2.73-.32-5.69-.48-8.9-.48-2.89,0-5.45.12-7.69.36-3.69.4-6.01.6-6.97.6-2.33,0-4.19-.72-5.59-2.16-1.4-1.44-2.1-3.33-2.1-5.65,0-4.65,1.88-6.97,5.65-6.97.56,0,1.24.08,2.04.24,1.2.4,1.92.6,2.16.6,1.36,0,2.04-2.24,2.04-6.73v-19.48c0-4.57-.68-6.85-2.04-6.85l-2.16.48c-.56.24-1.24.36-2.04.36-3.77,0-5.65-2.24-5.65-6.73,0-2.32.64-4.27,1.92-5.83,1.28-1.56,2.84-2.34,4.69-2.34.48,0,1.72.2,3.73.6,1.04.32,2.32.48,3.85.48,1.44,0,3.04-.18,4.81-.54,1.52-.27,2.77-.45,3.73-.54,2.4-.08,3.61,1.13,3.61,3.64v10.43c2.96-10.42,9.26-15.63,18.88-15.63,4.41,0,8.11,1.4,11.12,4.21,3.01,2.81,4.51,6.33,4.51,10.58Z"/><path class="uuid-5cc7167d-d0b4-46be-84c3-2b4624f95561" d="m476.27,151.31c0,5.45-2.45,8.17-7.33,8.17-1.44,0-3.61-.2-6.49-.6-2.33-.32-4.89-.48-7.69-.48-2.4,0-4.65.16-6.73.48-2.57.4-4.53.6-5.89.6-2.16,0-3.93-.71-5.29-2.14-1.36-1.43-2.04-3.3-2.04-5.61,0-4.61,1.88-6.92,5.65-6.92.56,0,1.24.07,2.04.21,1.2.34,1.92.51,2.16.51,1.36,0,2.04-2.24,2.04-6.73v-19.48c0-4.57-.68-6.85-2.04-6.85l-2.16.48c-.56.24-1.24.36-2.04.36-3.77,0-5.65-2.32-5.65-6.97,0-2.32.7-4.21,2.1-5.65,1.4-1.44,3.26-2.16,5.59-2.16.96,0,2.2.12,3.73.36,2.56.4,4.73.6,6.49.6s3.57-.16,5.41-.48c1.84-.32,3.05-.48,3.61-.48,2.24,0,3.37,1.56,3.37,4.69v36.07c0,4.17.8,6.25,2.4,6.25.4,0,.96-.12,1.68-.36.72-.24,1.4-.36,2.04-.36,3.37,0,5.05,2.16,5.05,6.49Zm-10.46-68.29c0,3.05-1.06,5.63-3.19,7.75-2.12,2.12-4.71,3.19-7.75,3.19s-5.63-1.1-7.75-3.31c-2.12-2.2-3.19-4.91-3.19-8.11,0-2.72,1.1-5.15,3.31-7.27,2.2-2.12,4.75-3.19,7.63-3.19,3.12,0,5.73,1.04,7.81,3.13,2.08,2.08,3.12,4.69,3.12,7.81Z"/><path class="uuid-5cc7167d-d0b4-46be-84c3-2b4624f95561" d="m526.72,140.85c0,6.33-1.88,11.26-5.65,14.79-3.77,3.53-8.98,5.29-15.63,5.29-13.31,0-19.96-6.97-19.96-20.92,0-3.13.08-6.49.24-10.1.24-5.45.36-8.78.36-9.98v-3.97c0-2-.18-3.25-.54-3.73-.36-.48-1.22-.72-2.58-.72h-1.92c-1.52,0-2.77-.58-3.73-1.74-.96-1.16-1.44-2.66-1.44-4.51s.5-3.43,1.5-4.75c1-1.32,2.18-1.98,3.55-1.98h2.28c1.92,0,3.04-.56,3.37-1.68.24-.64.36-1.72.36-3.25v-5.89c0-2.8.78-4.75,2.34-5.83,1.56-1.08,4.43-1.62,8.6-1.62,2.48,0,4.21.48,5.17,1.44.96.96,1.44,2.69,1.44,5.17v6.37c0,2.4.22,3.89.66,4.45.44.56,1.58.84,3.43.84h8.66c4.73,0,7.09,2.12,7.09,6.37s-2.16,6.61-6.49,6.61h-9.86c-1.68,0-2.69.28-3.01.84-.32.56-.48,1.44-.48,2.65v4.93c0,3.61-.06,6.09-.18,7.45-.12,1.36-.18,3.13-.18,5.29v6.49c0,4.33,1.5,6.49,4.51,6.49,2.76,0,4.15-2.08,4.15-6.25v-4.69c0-1.76.6-3.2,1.79-4.33,1.19-1.12,2.74-1.68,4.65-1.68,5.01,0,7.51,4.05,7.51,12.14Z"/><path class="uuid-5cc7167d-d0b4-46be-84c3-2b4624f95561" d="m589.96,123.66c0,3.21-.28,5.33-.84,6.37-.8,1.52-2.61,2.28-5.41,2.28h-29.33c-1.28,0-2.14.14-2.58.42-.44.28-.66.99-.66,2.12,0,3.4,1.08,6.2,3.25,8.43,2.16,2.22,4.89,3.33,8.18,3.33s6.81-1.87,10.34-5.6c2.32-2.52,4.97-3.78,7.93-3.78,2.4,0,4.35.66,5.83,1.98,1.48,1.32,2.22,3.07,2.22,5.23,0,4.57-2.54,8.48-7.63,11.72-5.09,3.25-11.28,4.87-18.57,4.87-9.54,0-17.15-2.87-22.84-8.6-5.69-5.73-8.54-13.44-8.54-23.14s2.84-17.61,8.54-23.5c5.69-5.89,13.26-8.84,22.72-8.84,8.17,0,14.79,2.46,19.84,7.39,5.05,4.93,7.57,11.36,7.57,19.3Zm-19.12-6.13c0-2-.92-3.79-2.76-5.35-1.84-1.56-3.93-2.34-6.25-2.34-2.57,0-4.89.82-6.97,2.46-2.08,1.64-3.13,3.47-3.13,5.47,0,1.12.96,1.68,2.89,1.68h13.46c1.84,0,2.76-.64,2.76-1.92Z"/><path class="uuid-5cc7167d-d0b4-46be-84c3-2b4624f95561" d="m670.47,151.68c0,5.12-2.57,7.69-7.69,7.69-1.04,0-2.48-.12-4.33-.36-3.05-.4-5.33-.6-6.85-.6-1.6,0-3.57.16-5.89.48-2.33.32-4.01.48-5.05.48-2.16,0-3.93-.66-5.29-1.99-1.36-1.32-2.04-3.03-2.04-5.11,0-1.52.76-2.87,2.28-4.03,1.52-1.16,2.28-2.02,2.28-2.59,0-.88-.71-2.37-2.14-4.45l-3.78-5.29-4.82,6.72c-1.1,1.62-1.64,2.75-1.64,3.4,0,.89.76,1.7,2.28,2.43,1.52.73,2.28,2.06,2.28,4,0,2.1-.68,3.78-2.04,5.03-1.36,1.25-3.17,1.88-5.41,1.88-.88,0-2.69-.14-5.41-.43-1.84-.19-3.45-.29-4.81-.29-2,0-4.33.14-6.97.41-2,.21-3.89.31-5.65.31-4.89,0-7.33-2.58-7.33-7.75,0-1.99.54-3.6,1.62-4.83s2.5-1.85,4.27-1.85c.48,0,1.2.08,2.16.24.96.16,1.68.24,2.16.24,1.04,0,1.86-.26,2.46-.78.6-.52,1.98-2.3,4.15-5.35l7.93-11.06-9.02-11.51c-1.92-2.51-3.61-3.76-5.05-3.76h-4.09c-1.52,0-2.81-.62-3.85-1.85-1.04-1.23-1.56-2.76-1.56-4.59,0-2.39.68-4.31,2.04-5.78,1.36-1.47,3.17-2.21,5.41-2.21.8,0,2.08.12,3.85.36,2.89.4,5.29.6,7.21.6,1.36,0,3.61-.2,6.73-.6,1.84-.24,3.41-.36,4.69-.36,4.65,0,6.97,2.21,6.97,6.63,0,1.53-.72,3.01-2.16,4.46-.8.8-1.2,1.45-1.2,1.93,0,.72.6,2.05,1.81,3.98l3.75,6.03,4.17-6.07c.96-1.36,1.45-2.44,1.45-3.25,0-.56-.36-1.08-1.08-1.56-.72-.48-1.4-.92-2.04-1.32-.8-.72-1.2-1.96-1.2-3.73,0-4.73,2.24-7.09,6.73-7.09,1.2,0,2.64.12,4.33.36,2.8.4,4.77.6,5.89.6,1.2,0,3.01-.16,5.41-.48,2.4-.32,4.25-.48,5.53-.48,2.08,0,3.79.67,5.11,2,1.32,1.33,1.98,3.09,1.98,5.27,0,1.86-.54,3.52-1.62,4.97s-2.27,2.18-3.55,2.18c-.48,0-1.2-.15-2.16-.45-.24,0-.52-.05-.84-.15h-.84c-.88,0-1.48.12-1.8.36-.32.24-1.28,1.48-2.88,3.73l-8.05,10.94,9.98,14.55c1.52,2,2.84,3.01,3.97,3.01h3.37c1.76,0,3.19.63,4.27,1.89,1.08,1.26,1.62,2.88,1.62,4.85Z"/><path class="uuid-5cc7167d-d0b4-46be-84c3-2b4624f95561" d="m723.28,140.85c0,6.33-1.88,11.26-5.65,14.79-3.77,3.53-8.98,5.29-15.63,5.29-13.31,0-19.96-6.97-19.96-20.92,0-3.13.08-6.49.24-10.1.24-5.45.36-8.78.36-9.98v-3.97c0-2-.18-3.25-.54-3.73-.36-.48-1.22-.72-2.58-.72h-1.92c-1.52,0-2.77-.58-3.73-1.74-.96-1.16-1.44-2.66-1.44-4.51s.5-3.43,1.5-4.75c1-1.32,2.18-1.98,3.55-1.98h2.28c1.92,0,3.04-.56,3.37-1.68.24-.64.36-1.72.36-3.25v-5.89c0-2.8.78-4.75,2.34-5.83,1.56-1.08,4.43-1.62,8.6-1.62,2.48,0,4.21.48,5.17,1.44.96.96,1.44,2.69,1.44,5.17v6.37c0,2.4.22,3.89.66,4.45.44.56,1.58.84,3.43.84h8.66c4.73,0,7.09,2.12,7.09,6.37s-2.16,6.61-6.49,6.61h-9.86c-1.68,0-2.69.28-3.01.84-.32.56-.48,1.44-.48,2.65v4.93c0,3.61-.06,6.09-.18,7.45-.12,1.36-.18,3.13-.18,5.29v6.49c0,4.33,1.5,6.49,4.51,6.49,2.76,0,4.15-2.08,4.15-6.25v-4.69c0-1.76.6-3.2,1.79-4.33,1.19-1.12,2.74-1.68,4.65-1.68,5.01,0,7.51,4.05,7.51,12.14Z"/><path class="uuid-5cc7167d-d0b4-46be-84c3-2b4624f95561" d="m786.52,123.66c0,3.21-.28,5.33-.84,6.37-.8,1.52-2.61,2.28-5.41,2.28h-29.33c-1.28,0-2.14.14-2.58.42-.44.28-.66.99-.66,2.12,0,3.4,1.08,6.2,3.25,8.43,2.16,2.22,4.89,3.33,8.18,3.33s6.81-1.87,10.34-5.6c2.32-2.52,4.97-3.78,7.93-3.78,2.4,0,4.35.66,5.83,1.98,1.48,1.32,2.22,3.07,2.22,5.23,0,4.57-2.54,8.48-7.63,11.72-5.09,3.25-11.28,4.87-18.57,4.87-9.54,0-17.15-2.87-22.84-8.6-5.69-5.73-8.54-13.44-8.54-23.14s2.84-17.61,8.54-23.5c5.69-5.89,13.26-8.84,22.72-8.84,8.17,0,14.79,2.46,19.84,7.39,5.05,4.93,7.57,11.36,7.57,19.3Zm-19.12-6.13c0-2-.92-3.79-2.76-5.35-1.84-1.56-3.93-2.34-6.25-2.34-2.57,0-4.89.82-6.97,2.46-2.08,1.64-3.13,3.47-3.13,5.47,0,1.12.96,1.68,2.89,1.68h13.46c1.84,0,2.76-.64,2.76-1.92Z"/></svg>